<svg id="Layer_1" data-name="Layer 1" xmlns="http://www.w3.org/2000/svg" viewBox="0 0 223.36 83.32"><defs><style>.cls-1{fill:#fff;}</style></defs><title>Logo - Niet Corrupt</title><path class="cls-1" d="M18.87,61.21q-2,0-2-2.15V22.27q0-2.15,2-2.15H41.53q2.15,0,2.15,1.86v3.38q0,1.86-2.15,1.86H25.23v10h14q2.15,0,2.15,1.86v3.38q0,1.86-2.15,1.86h-14V59.06q0,2.15-2,2.15Z" transform="translate(-0.09)"/><path class="cls-1" d="M49.81,48.71V32.84a1.52,1.52,0,0,1,1.72-1.72h4.58a1.52,1.52,0,0,1,1.72,1.72V46.65q0,6.25.86,7.88t3.61,1.63a5,5,0,0,0,4.48-2.33q1.53-2.33,1.53-9.7V32.84A1.51,1.51,0,0,1,70,31.12h4.55a1.51,1.51,0,0,1,1.71,1.72V59.49a1.52,1.52,0,0,1-1.72,1.72H70a1.52,1.52,0,0,1-1.72-1.72V57.83a7.08,7.08,0,0,1-3.4,3.11,12.84,12.84,0,0,1-4.88.85A10.13,10.13,0,0,1,52.73,59Q49.81,56.16,49.81,48.71Z" transform="translate(-0.09)"/><path class="cls-1" d="M85.79,61.21a1.51,1.51,0,0,1-1.71-1.72V32.84a1.52,1.52,0,0,1,1.72-1.72h4.53A1.52,1.52,0,0,1,92,32.84V34.5a7,7,0,0,1,3.37-3.11,12.91,12.91,0,0,1,4.93-.85,10.34,10.34,0,0,1,7.44,2.81q2.94,2.81,2.94,10.26V59.49A1.52,1.52,0,0,1,109,61.21h-4.58a1.52,1.52,0,0,1-1.72-1.72V45.68q0-6.25-.86-7.88t-3.72-1.63a5.08,5.08,0,0,0-4.55,2.33Q92,40.84,92,48.2V59.49a1.51,1.51,0,0,1-1.71,1.72Z" transform="translate(-0.09)"/><path class="cls-1" d="M117.78,61.21q-1.72,0-1.72-1.43V57.6a5.28,5.28,0,0,1,1.17-3.09l12.84-17.65v-.11q-1.15.11-2.29.11h-9.31q-1.72,0-1.72-1.43V34.5q0-3.38,1.72-3.38h19.83q1.72,0,1.72,1.24V34.1a5.4,5.4,0,0,1-1.28,3L125.34,55.48v.11q1.57-.11,2.37-.11h11.21q1.78,0,1.78,1.43v2.87q0,1.43-1.72,1.43Z" transform="translate(-0.09)"/><path class="cls-1" d="M147.8,26.71A1.52,1.52,0,0,1,146.09,25V21.32a1.52,1.52,0,0,1,1.72-1.72h4.58a1.52,1.52,0,0,1,1.72,1.72V25a1.52,1.52,0,0,1-1.72,1.72Zm0,34.5a1.52,1.52,0,0,1-1.72-1.72V32.84a1.52,1.52,0,0,1,1.72-1.72h4.58a1.52,1.52,0,0,1,1.72,1.72V59.49a1.52,1.52,0,0,1-1.72,1.72Z" transform="translate(-0.09)"/><path class="cls-1" d="M160.3,46.16a21.24,21.24,0,0,1,2.74-11q2.74-4.66,9.47-4.66a11.72,11.72,0,0,1,4.41.75,7.35,7.35,0,0,1,3.32,3.21V32.84q0-1.72,1.5-1.72h4.73q1.8,0,1.8,1.72V60.89q0,7-3.78,9.68t-10.95,2.66a46.48,46.48,0,0,1-5.62-.31,16.81,16.81,0,0,1-5.21-1.58q-1.38-.66-.46-2.49l1-2.06q.63-1.26,2.09-.57a16.34,16.34,0,0,0,2.91,1,18.71,18.71,0,0,0,4.4.43,9.76,9.76,0,0,0,5.62-1.36q1.95-1.36,1.95-5.95v-.49q0-1.15.11-2.29h-.11a7.35,7.35,0,0,1-3.32,3.21,11.72,11.72,0,0,1-4.41.75q-6.73,0-9.47-4.66A20.66,20.66,0,0,1,160.3,46.16Zm8.48,0a17.58,17.58,0,0,0,1.19,7q1.19,2.71,5.06,2.71a4.38,4.38,0,0,0,3.68-2.42,11.6,11.6,0,0,0,1.53-6.29V44.88a11.6,11.6,0,0,0-1.53-6.29A4.38,4.38,0,0,0,175,36.16q-3.87,0-5.06,2.71A18.46,18.46,0,0,0,168.78,46.16Z" transform="translate(-0.09)"/><path class="cls-1" d="M194.45,46.16q0-7.25,3.63-11.43t10.24-4.18q7.68,0,11.4,4t3.73,12.72q0,1.72-1.6,1.72H202.93q.46,4.76,2.35,6a7.85,7.85,0,0,0,4.38,1.23,8.34,8.34,0,0,0,3.64-.63,6.2,6.2,0,0,0,2.12-1.72,1.64,1.64,0,0,1,2.41-.4l2.87,1.75q1.69,1,.49,2.47a11.13,11.13,0,0,1-4.1,3.12,19.72,19.72,0,0,1-7.42,1q-8.22,0-11.72-4.18T194.45,46.16Zm8.48-3h12.49a8,8,0,0,0-1.55-5.08q-1.55-2-4.94-2A5.29,5.29,0,0,0,204.66,38,8.39,8.39,0,0,0,202.93,43.21Z" transform="translate(-0.09)"/><path class="cls-1" d="M16.79,18.87s-10.31-4.19-15.55,4c0,0-3.67,4.54,2.1,7.16,0,0,4.09,1.4,5.1-4.37C8.44,25.69,8.58,19.4,16.79,18.87Z" transform="translate(-0.09)"/><path class="cls-1" d="M16.79,17.48s-10.61-3.34-9.42-13c0,0,.07-5.84,6.18-4.18,0,0,4,1.53,1.15,6.62C14.7,6.91,10.8,11.85,16.79,17.48Z" transform="translate(-0.09)"/><path class="cls-1" d="M18,17.8S13.81,7.51,22,2.25c0,0,4.53-3.68,7.17,2.08,0,0,1.41,4.09-4.35,5.11C24.82,9.44,18.54,9.59,18,17.8Z" transform="translate(-0.09)"/><path class="cls-1" d="M84.67,79V65.07h4.54a7,7,0,0,1,2.88.55,5.74,5.74,0,0,1,2,1.49,6.32,6.32,0,0,1,1.22,2.2A8.63,8.63,0,0,1,95.76,72a8.45,8.45,0,0,1-.46,2.87A6.25,6.25,0,0,1,94,77.05a5.81,5.81,0,0,1-2.06,1.41,7.09,7.09,0,0,1-2.72.5Zm10.41-7a8,8,0,0,0-.38-2.52,5.57,5.57,0,0,0-1.13-2,5.19,5.19,0,0,0-1.85-1.31,6.3,6.3,0,0,0-2.5-.47H85.36V78.34h3.85a6.3,6.3,0,0,0,2.54-.48,5.14,5.14,0,0,0,1.84-1.33,5.61,5.61,0,0,0,1.11-2A8.22,8.22,0,0,0,95.08,72Z" transform="translate(-0.09)"/><path class="cls-1" d="M102.53,79.16a4.52,4.52,0,0,1-1.94-.42A5,5,0,0,1,99,77.58,5.43,5.43,0,0,1,98,75.88a5.58,5.58,0,0,1-.38-2.06,5.42,5.42,0,0,1,.37-2,5.1,5.1,0,0,1,1-1.64A5,5,0,0,1,100.54,69a4.47,4.47,0,0,1,1.92-.41,4.65,4.65,0,0,1,2,.41A4.9,4.9,0,0,1,106,70.17a5.3,5.3,0,0,1,1,1.67,5.45,5.45,0,0,1,.38,2V74a.26.26,0,0,1,0,.14H98.27a5.35,5.35,0,0,0,.44,1.75,4.7,4.7,0,0,0,.94,1.4,4.4,4.4,0,0,0,1.33.93,3.81,3.81,0,0,0,1.59.34,4.1,4.1,0,0,0,1.09-.15,4.16,4.16,0,0,0,1-.42,3.53,3.53,0,0,0,.82-.66,3.37,3.37,0,0,0,.57-.83l.61.16a3.41,3.41,0,0,1-.63,1,3.9,3.9,0,0,1-1,.78,5.31,5.31,0,0,1-1.2.51A4.76,4.76,0,0,1,102.53,79.16Zm4.21-5.56a5.13,5.13,0,0,0-.41-1.76,4.59,4.59,0,0,0-.93-1.39,4.17,4.17,0,0,0-1.32-.91,4,4,0,0,0-1.6-.32,3.89,3.89,0,0,0-1.6.33,4.07,4.07,0,0,0-1.3.92,4.64,4.64,0,0,0-.9,1.39,5.23,5.23,0,0,0-.4,1.74Z" transform="translate(-0.09)"/><path class="cls-1" d="M112.72,79.16a6,6,0,0,1-2.19-.39,4.89,4.89,0,0,1-1.8-1.21l.37-.45a6.16,6.16,0,0,0,1.68,1.12,4.79,4.79,0,0,0,1.92.37A4,4,0,0,0,115,78a2,2,0,0,0,.88-1.7,1.52,1.52,0,0,0-.23-.85,1.87,1.87,0,0,0-.66-.59,5.06,5.06,0,0,0-1.07-.43q-.64-.19-1.46-.38T111,73.65a4.33,4.33,0,0,1-1-.44,1.59,1.59,0,0,1-.61-.65,2.23,2.23,0,0,1-.2-1,2.74,2.74,0,0,1,.29-1.31,2.67,2.67,0,0,1,.79-.91,3.48,3.48,0,0,1,1.15-.54,5.38,5.38,0,0,1,1.4-.18A5,5,0,0,1,115,69a3,3,0,0,1,1.3,1l-.45.33a2.69,2.69,0,0,0-1.26-.9,5,5,0,0,0-1.77-.31,4.82,4.82,0,0,0-1.13.13,2.68,2.68,0,0,0-.93.41,2,2,0,0,0-.87,1.73,1.74,1.74,0,0,0,.16.78,1.26,1.26,0,0,0,.5.52,3.55,3.55,0,0,0,.86.35l1.26.32q.94.22,1.66.43a5.78,5.78,0,0,1,1.23.51,2.13,2.13,0,0,1,.77.72,2.06,2.06,0,0,1,.26,1.1,2.65,2.65,0,0,1-.27,1.22,2.77,2.77,0,0,1-.77.93,3.51,3.51,0,0,1-1.21.6A5.71,5.71,0,0,1,112.72,79.16Z" transform="translate(-0.09)"/><path class="cls-1" d="M118.94,66.33V64.68h.67v1.64Zm0,12.64V68.79h.67V79Z" transform="translate(-0.09)"/><path class="cls-1" d="M126.94,79.14a4.31,4.31,0,0,1-2-.45,5,5,0,0,1-1.55-1.18,5.5,5.5,0,0,1-1-1.67,5.28,5.28,0,0,1-.36-1.92,5.8,5.8,0,0,1,.34-2,5.38,5.38,0,0,1,1-1.68,4.79,4.79,0,0,1,1.5-1.17,4.21,4.21,0,0,1,1.93-.44,3.93,3.93,0,0,1,1.25.2,4.73,4.73,0,0,1,1.1.53,5.36,5.36,0,0,1,.94.78,7.88,7.88,0,0,1,.78,1V68.79h.63V79.27a3.92,3.92,0,0,1-.38,1.79,3.79,3.79,0,0,1-1,1.26,4.22,4.22,0,0,1-1.48.75,6.24,6.24,0,0,1-1.76.25,6.43,6.43,0,0,1-1.59-.18,4.59,4.59,0,0,1-1.22-.49,4,4,0,0,1-.93-.75,5.1,5.1,0,0,1-.69-1l.49-.27a3.73,3.73,0,0,0,1.68,1.58,5.55,5.55,0,0,0,3.8.27,3.69,3.69,0,0,0,1.26-.66,3.12,3.12,0,0,0,.86-1.08,3.43,3.43,0,0,0,.31-1.51V76.89a4.41,4.41,0,0,1-.75.92,5.2,5.2,0,0,1-.95.7,5,5,0,0,1-1.07.46A3.92,3.92,0,0,1,126.94,79.14Zm.1-.61a3.56,3.56,0,0,0,1.34-.26,4.73,4.73,0,0,0,1.18-.68,4,4,0,0,0,.87-.94,2.37,2.37,0,0,0,.4-1V72.1a4.32,4.32,0,0,0-.66-1.13,4.58,4.58,0,0,0-.95-.9,4.7,4.7,0,0,0-1.13-.59,3.67,3.67,0,0,0-1.23-.22,3.61,3.61,0,0,0-1.74.41,4.13,4.13,0,0,0-1.29,1.08,4.79,4.79,0,0,0-.8,1.5,5.3,5.3,0,0,0-.27,1.67,4.66,4.66,0,0,0,.33,1.75,4.82,4.82,0,0,0,.91,1.47,4.45,4.45,0,0,0,1.36,1A3.79,3.79,0,0,0,127,78.53Z" transform="translate(-0.09)"/><path class="cls-1" d="M142.77,79h-.67V73.29a6,6,0,0,0-.6-3.06,2.05,2.05,0,0,0-1.89-1,3.91,3.91,0,0,0-1.37.25,4.71,4.71,0,0,0-1.26.7,5.22,5.22,0,0,0-1,1.06,4,4,0,0,0-.64,1.33V79h-.67V68.79h.65v2.54a4.85,4.85,0,0,1,.78-1.11,4.92,4.92,0,0,1,1.06-.85,5.41,5.41,0,0,1,1.24-.55,4.66,4.66,0,0,1,1.34-.2,2.52,2.52,0,0,1,2.32,1.14,6.59,6.59,0,0,1,.71,3.43Z" transform="translate(-0.09)"/><path class="cls-1" d="M148.91,79.16a6,6,0,0,1-2.19-.39,4.89,4.89,0,0,1-1.8-1.21l.37-.45A6.16,6.16,0,0,0,147,78.22a4.79,4.79,0,0,0,1.92.37A4,4,0,0,0,151.2,78a2,2,0,0,0,.88-1.7,1.52,1.52,0,0,0-.23-.85,1.87,1.87,0,0,0-.66-.59,5.06,5.06,0,0,0-1.07-.43q-.64-.19-1.46-.38t-1.46-.38a4.33,4.33,0,0,1-1-.44,1.59,1.59,0,0,1-.61-.65,2.23,2.23,0,0,1-.2-1,2.74,2.74,0,0,1,.29-1.31,2.67,2.67,0,0,1,.79-.91,3.48,3.48,0,0,1,1.15-.54,5.38,5.38,0,0,1,1.4-.18,5,5,0,0,1,2.12.41,3,3,0,0,1,1.3,1l-.45.33a2.69,2.69,0,0,0-1.26-.9A5,5,0,0,0,149,69.2a4.82,4.82,0,0,0-1.13.13,2.68,2.68,0,0,0-.93.41,2,2,0,0,0-.87,1.73,1.74,1.74,0,0,0,.16.78,1.26,1.26,0,0,0,.5.52,3.55,3.55,0,0,0,.86.35l1.26.32q.94.22,1.66.43a5.78,5.78,0,0,1,1.23.51,2.13,2.13,0,0,1,.77.72,2.06,2.06,0,0,1,.26,1.1,2.65,2.65,0,0,1-.27,1.22,2.77,2.77,0,0,1-.77.93,3.51,3.51,0,0,1-1.21.6A5.71,5.71,0,0,1,148.91,79.16Z" transform="translate(-0.09)"/></svg>