<?xml version="1.0" encoding="utf-8"?>
<!-- Generator: Adobe Illustrator 21.1.0, SVG Export Plug-In . SVG Version: 6.00 Build 0)  -->
<svg version="1.1" xmlns="http://www.w3.org/2000/svg" xmlns:xlink="http://www.w3.org/1999/xlink" x="0px" y="0px"
	 viewBox="0 0 482.8 171.2" style="enable-background:new 0 0 482.8 171.2;" xml:space="preserve">
<style type="text/css">
	.st0{display:none;}
	.st1{display:inline;fill:none;stroke:#000000;stroke-width:10;stroke-miterlimit:10;}
	.st2{display:inline;}
	.st3{display:inline;fill:#6EB255;}
	.st4{fill:#FFFFFF;}
	.st5{display:inline;fill:#FFFFFF;}
	.st6{fill:none;}
	.st7{font-family:'IstokWeb-Bold';}
	.st8{font-size:116.9484px;}
	.st9{font-family:'Raleway-Bold';}
	.st10{font-size:38.9828px;}
</style>
<g id="Smooth" class="st0">
	<path class="st1" d="M534.5,726.1c0,0,107,37,113-59c0,0,2-42-24-29c0,0-24.6,10.9-25,52c0,0,1,49,64,25c0,0,48-20,83-114
		c0,0,27-101,88-123"/>
	<path class="st1" d="M700.5,567.1c0,0,4-20,40-13c0,0,58,24.5,83,5.8"/>
	<path class="st1" d="M833.5,533.1c0,0-16,28-10,46"/>
	<path class="st1" d="M755.5,463.1c0,0,24,3,21,32c0,0-12,54-76,33c0,0-46-13-16.5-65c0,0,30.5-44,103.5-18c0,0,46,22,79,22
		c0,0,105,4,145-13c0,0,39-16,14-32c0,0-22-13-30-9"/>
	<path class="st1" d="M744.5,629.1c0,0,8-15.3,15.3-9.3c0,0,6.3,3.7,0,13.7l-20,36c0,0-17.7,28,3.3,29.3c0,0,17,5,34-35.3l14.7-39.7
		"/>
	<path class="st1" d="M786.5,701.1c0,0-22.6,3.8-19.5-18.4"/>
	<path class="st1" d="M849.3,697.1c0,0-8,15.3-15.3,9.3c0,0-6.3-3.7,0-13.7l20-36c0,0,17.7-28-3.3-29.3c0,0-17-5-34,35.3L802,702.4"
		/>
	<path class="st1" d="M807.3,625.1c0,0,22.6-3.8,19.5,18.4"/>
	<path class="st1" d="M874.5,637.8c0,0,6.7-14,21.3-7.3c0,0,20,11.7,29.7-1.8L866.8,692c0,0,15.7-14.7,31,0c0,0,13.3,12.6,24.3-9.3"
		/>
	<path class="st1" d="M944.5,647.1l-9,35.6c0,0-7.7,21.6,16.3,9.3"/>
	<g class="st2">
		<g>
			<path d="M946.2,642c9.7,0,9.7-15,0-15C936.5,627,936.5,642,946.2,642L946.2,642z"/>
		</g>
	</g>
	<path class="st1" d="M954.2,625.1c0,0,14-19,32.3-1.4c0,0,33.7,37.6,49.3,13.6c0,0,6.7-9.6-5-16c0,0-27.3-10.6-49.3,18.7
		c0,0-24.3,42,28.3,35.3c0,0,14,0,20-19c0,0-36,94.3-65.7,103.3c0,0-63.3,26.7-68-22.3c0,0-1.2-23,30.6-28c0,0,36.4-7.3,132.4-5"/>
	<path class="st1" d="M1051.5,640.9c0,0,24.3,18.7,61.7,18c0,0,38.3-2.5,11-28.2c0,0-46-30.1-68.3,28.3c0,0-9.3,24.3,23.7,29
		c0,0,27,5.7,47-4.7"/>
	<g class="st2">
		<g>
			<path d="M700.5,574.6c9.7,0,9.7-15,0-15C690.8,559.6,690.8,574.6,700.5,574.6L700.5,574.6z"/>
		</g>
	</g>
	<g class="st2">
		<g>
			<path d="M829.5,486.6c9.7,0,9.7-15,0-15C819.8,471.6,819.8,486.6,829.5,486.6L829.5,486.6z"/>
		</g>
	</g>
	<g class="st2">
		<g>
			<path d="M994.5,420.6c9.7,0,9.7-15,0-15C984.8,405.6,984.8,420.6,994.5,420.6L994.5,420.6z"/>
		</g>
	</g>
	<g class="st2">
		<g>
			<path d="M753.5,471.6c9.7,0,9.7-15,0-15C743.8,456.6,743.8,471.6,753.5,471.6L753.5,471.6z"/>
		</g>
	</g>
	<g class="st2">
		<g>
			<path d="M830.5,540.6c9.7,0,9.7-15,0-15C820.8,525.6,820.8,540.6,830.5,540.6L830.5,540.6z"/>
		</g>
	</g>
	<g class="st2">
		<g>
			<path d="M823.5,586.6c9.7,0,9.7-15,0-15C813.8,571.6,813.8,586.6,823.5,586.6L823.5,586.6z"/>
		</g>
	</g>
	<g class="st2">
		<g>
			<path d="M742,636.6c9.7,0,9.7-15,0-15C732.3,621.6,732.3,636.6,742,636.6L742,636.6z"/>
		</g>
	</g>
	<g class="st2">
		<g>
			<path d="M790,631.6c9.7,0,9.7-15,0-15C780.3,616.6,780.3,631.6,790,631.6L790,631.6z"/>
		</g>
	</g>
	<g class="st2">
		<g>
			<path d="M783.5,709.1c9.7,0,9.7-15,0-15C773.8,694.1,773.8,709.1,783.5,709.1L783.5,709.1z"/>
		</g>
	</g>
	<g class="st2">
		<g>
			<path d="M806,631.6c9.7,0,9.7-15,0-15C796.3,616.6,796.3,631.6,806,631.6L806,631.6z"/>
		</g>
	</g>
	<g class="st2">
		<g>
			<path d="M849,706.1c9.7,0,9.7-15,0-15C839.3,691.1,839.3,706.1,849,706.1L849,706.1z"/>
		</g>
	</g>
	<g class="st2">
		<g>
			<path d="M801,709.6c9.7,0,9.7-15,0-15C791.3,694.6,791.3,709.6,801,709.6L801,709.6z"/>
		</g>
	</g>
	<g class="st2">
		<g>
			<path d="M873,644.6c9.7,0,9.7-15,0-15C863.3,629.6,863.3,644.6,873,644.6L873,644.6z"/>
		</g>
	</g>
	<g class="st2">
		<g>
			<path d="M865.5,700.1c9.7,0,9.7-15,0-15C855.8,685.1,855.8,700.1,865.5,700.1L865.5,700.1z"/>
		</g>
	</g>
	<g class="st2">
		<g>
			<path d="M921,689.6c9.7,0,9.7-15,0-15C911.3,674.6,911.3,689.6,921,689.6L921,689.6z"/>
		</g>
	</g>
	<g class="st2">
		<g>
			<path d="M923,636.6c9.7,0,9.7-15,0-15C913.3,621.6,913.3,636.6,923,636.6L923,636.6z"/>
		</g>
	</g>
	<g class="st2">
		<g>
			<path d="M950,701.6c9.7,0,9.7-15,0-15C940.3,686.6,940.3,701.6,950,701.6L950,701.6z"/>
		</g>
	</g>
	<g class="st2">
		<g>
			<path d="M955.5,630.6c9.7,0,9.7-15,0-15C945.8,615.6,945.8,630.6,955.5,630.6L955.5,630.6z"/>
		</g>
	</g>
	<g class="st2">
		<g>
			<path d="M1028.5,665.6c9.7,0,9.7-15,0-15C1018.8,650.6,1018.8,665.6,1028.5,665.6L1028.5,665.6z"/>
		</g>
	</g>
	<g class="st2">
		<g>
			<path d="M1058.5,713.6c9.7,0,9.7-15,0-15C1048.8,698.6,1048.8,713.6,1058.5,713.6L1058.5,713.6z"/>
		</g>
	</g>
	<g class="st2">
		<g>
			<path d="M1049.5,647.6c9.7,0,9.7-15,0-15C1039.8,632.6,1039.8,647.6,1049.5,647.6L1049.5,647.6z"/>
		</g>
	</g>
	<g class="st2">
		<g>
			<path d="M1124.5,689.6c9.7,0,9.7-15,0-15C1114.8,674.6,1114.8,689.6,1124.5,689.6L1124.5,689.6z"/>
		</g>
	</g>
	<rect x="661.2" y="725.3" style="display:inline;fill:none;" width="244.5" height="61.3"/>
	<text transform="matrix(1 0 0 1 691.1221 761.7747)" class="st2" style="font-family:'Raleway-Regular'; font-size:50px;">Designs</text>
	<rect x="43.3" y="342.7" style="display:inline;fill:none;" width="396.3" height="106.2"/>
	<text transform="matrix(1 0 0 1 68.0007 411.4933)" class="st2 st7" style="font-size:95.3571px;">Funzige </text>
</g>
<g id="Shape" class="st0">
	<rect x="595.3" y="75.6" class="st3" width="482.8" height="179.1"/>
	<polygon class="st2" points="85.3,99.7 85.3,207.5 101.3,207.5 101.3,149.5 130.8,149.5 130.8,137.4 100.3,137.4 99.8,113.2 
		163.6,112.7 163.6,99.7 	"/>
	<path class="st2" d="M137,137.4v44.2c0,0-2.4,21.6,20.3,23c0,0,22.2,3.9,22.7-16.4v16.7h11.6v-67.5h-12.1v38.7
		c0,0-2.9,21.3-18.9,16.4c0,0-12.1-2.5-11.6-10.9v-44.2H137z"/>
	<path class="st2" d="M256.9,204.9v-44.2c0,0,2.4-21.6-20.3-23c0,0-22.2-3.9-22.7,16.4v-16.7h-11.6v67.5h12.1v-38.7
		c0,0,2.9-21.3,18.9-16.4c0,0,12.1,2.5,11.6,10.9v44.2H256.9z"/>
	<polygon class="st2" points="266.1,137.4 266.1,147.1 309.6,147.1 266.1,204.9 326.5,204.9 326.5,193 283.5,193 326.5,137.4 	"/>
	<rect x="331.9" y="137.4" class="st2" width="13.1" height="9.7"/>
	<rect x="331.9" y="153.6" class="st2" width="13.1" height="51.3"/>
	<path class="st2" d="M391.8,137.4l0.5,7.3c0,0-35.8-24.6-38.7,16.7c0,0-1.5,31.2,19.3,32.1c0,0,10.6,3.5,19.3-6.5v26.8
		c0,0,1.5,16-14,16c0,0-13.5,1.4-13.1-18.4h-11.6c0,0-7.2,38.7,24.7,34.8c0,0,26.1,1,27.6-35.8v-73H391.8z M392.3,175.6
		c-0.5,4.8-16,6-16,6c-11.1-0.3-7.3-28-7.3-28c-0.5-17.2,23.2,0,23.2,0V175.6z"/>
	<path class="st2" d="M441.1,191.9c0,0-10.3-0.6-6.9-21.2h50.4c0,0-4.6-35.5-37.8-33.2c0,0-40.1-1.7-36.1,33.2c0,0,2.9,56.7,63.6,24
		c0,0,4-6.3,5.2-12l-8-5.2C471.4,177.6,465.9,194.1,441.1,191.9z M449.9,148.8c10-0.7,15.2,9.6,15.2,9.6h-30.3
		C435.3,146.1,449.9,148.8,449.9,148.8z"/>
	<rect x="174.7" y="211.8" style="display:inline;fill:none;" width="170.2" height="47.9"/>
	
		<text transform="matrix(1 0 0 1 175.5776 245.668)" class="st2" style="font-family:'AkzidenzGroteskBE-It'; font-size:47.8592px;">Designs</text>
	<path class="st2" d="M81.3,98.7c0,0-28.5-11.6-43,11.1c0,0-10.2,12.6,5.8,19.8c0,0,11.3,3.9,14.1-12.1
		C58.2,117.6,58.5,100.2,81.3,98.7z"/>
	<path class="st2" d="M83.3,94.2c0,0-29.4-9.2-26.1-36c0,0,0.2-16.2,17.1-11.6c0,0,11.2,4.2,3.2,18.3C77.5,65,66.7,78.6,83.3,94.2z"
		/>
	<path class="st2" d="M86.1,93.3c0,0-10-29.1,13.6-42.3c0,0,13.1-9.4,19.5,6.9c0,0,3.2,11.5-12.9,13.4
		C106.2,71.3,88.8,70.7,86.1,93.3z"/>
	<path class="st2" d="M74.7,344.1c0,0-16.9-6.9-25.4,6.6c0,0-6,7.4,3.4,11.7c0,0,6.7,2.3,8.3-7.1C61,355.2,61.3,344.9,74.7,344.1z"
		/>
	<path class="st2" d="M75.9,341.4c0,0-17.4-5.5-15.4-21.3c0,0,0.1-9.5,10.1-6.8c0,0,6.6,2.5,1.9,10.8
		C72.5,324.1,66.1,332.2,75.9,341.4z"/>
	<path class="st2" d="M77.5,340.9c0,0-5.9-17.2,8-25c0,0,7.8-5.6,11.5,4.1c0,0,1.9,6.8-7.6,7.9C89.4,327.9,79.1,327.5,77.5,340.9z"
		/>
	<rect x="170.6" y="417.6" style="display:inline;fill:none;" width="128.9" height="34.1"/>
	<text transform="matrix(1 0 0 1 171.178 443.4225)" class="st2" style="font-family:'Raleway-ExtraLight'; font-size:35.3174px;">Designs</text>
	<rect x="36.9" y="509.9" style="display:inline;fill:none;" width="396.3" height="106.2"/>
	<text transform="matrix(1 0 0 1 92.6819 576.6603)" class="st2" style="font-family:'Lobster1.4'; font-size:95.3571px;">Funzige </text>
	<rect x="172" y="579.5" style="display:inline;fill:none;" width="138.9" height="34.1"/>
	<text transform="matrix(1 0 0 1 188.6672 600.1388)" class="st2" style="font-family:'Raleway-Medium'; font-size:28.2539px;">Designs</text>
	<rect x="112.8" y="665.3" style="display:inline;fill:none;" width="396.3" height="106.2"/>
	<text transform="matrix(1 0 0 1 172.0813 739.6075)" class="st2" style="font-family:'PinyonScript'; font-size:95.3571px;">Funzige </text>
	<rect x="172" y="744.4" style="display:inline;fill:none;" width="138.9" height="34.1"/>
	<text transform="matrix(1 0 0 1 188.6672 764.9904)" class="st2" style="font-family:'Raleway-Medium'; font-size:28.2539px;">Designs</text>
	<rect x="631.3" y="123.9" style="display:inline;fill:none;" width="396.3" height="106.2"/>
	<text transform="matrix(1 0 0 1 656.0104 192.6845)" class="st5 st7" style="font-size:95.3571px;">Funzige </text>
	<path class="st5" d="M662.7,125.2c0,0-16.9-6.9-25.4,6.6c0,0-6,7.4,3.4,11.7c0,0,6.7,2.3,8.3-7.1
		C649,136.4,649.3,126.1,662.7,125.2z"/>
	<path class="st5" d="M663.9,122.6c0,0-17.4-5.5-15.4-21.3c0,0,0.1-9.5,10.1-6.8c0,0,6.6,2.5,1.9,10.8
		C660.5,105.3,654.1,113.4,663.9,122.6z"/>
	<path class="st5" d="M665.5,122.1c0,0-5.9-17.2,8-25c0,0,7.8-5.6,11.5,4.1c0,0,1.9,6.8-7.6,7.9
		C677.4,109.1,667.2,108.7,665.5,122.1z"/>
	<rect x="758.6" y="198.8" style="display:inline;fill:none;" width="128.9" height="34.1"/>
	<text transform="matrix(1 0 0 1 759.1876 224.6137)" class="st5" style="font-family:'Raleway-ExtraLight'; font-size:35.3174px;">Designs</text>
	<rect x="-417.4" y="232" style="display:inline;fill:none;" width="396.3" height="106.2"/>
	<text transform="matrix(1 0 0 1 -393.928 301.1656)" class="st2 st7" style="font-size:96px;">Funzige </text>
	<path class="st2" d="M-387.8,231.9c0,0-16.9-6.9-25.4,6.6c0,0-6,7.4,3.4,11.7c0,0,6.7,2.3,8.3-7.1
		C-401.5,243.1-401.3,232.8-387.8,231.9z"/>
	<path class="st2" d="M-387.8,229.6c0,0-17.4-5.5-15.4-21.3c0,0,0.1-9.5,10.1-6.8c0,0,6.6,2.5,1.9,10.8
		C-391.2,212.3-397.6,220.4-387.8,229.6z"/>
	<path class="st2" d="M-385.8,230.2c0,0-6.9-16.8,6.5-25.5c0,0,7.4-6,11.7,3.4c0,0,2.3,6.7-7.1,8.4
		C-374.7,216.5-385,216.7-385.8,230.2z"/>
	<rect x="-278.3" y="306.9" style="display:inline;fill:none;" width="116" height="34.1"/>
	<text transform="matrix(1 0 0 1 -278.1984 330.211)" class="st2" style="font-family:'Raleway-ExtraLight'; font-size:32px;">Designs</text>
</g>
<g id="Layer_3">
	<g>
		<rect y="38.3" class="st6" width="482.8" height="129.3"/>
		<text transform="matrix(1 0 0 1 28.6274 122.6548)" class="st4 st7 st8">Funzige </text>
		<path class="st4" d="M36.1,38.3c0,0-20.5-8.4-31,8c0,0-7.3,9.1,4.2,14.3c0,0,8.2,2.8,10.2-8.7C19.4,51.9,19.7,39.3,36.1,38.3z"/>
		<path class="st4" d="M36.1,35.5c0,0-21.1-6.7-18.8-25.9c0,0,0.1-11.6,12.3-8.3c0,0,8.1,3.1,2.3,13.2
			C31.9,14.4,24.1,24.3,36.1,35.5z"/>
		<path class="st4" d="M38.6,36.2c0,0-8.4-20.5,7.9-31c0,0,9-7.3,14.3,4.1c0,0,2.8,8.1-8.7,10.2C52.1,19.5,39.6,19.8,38.6,36.2z"/>
		<rect x="161.3" y="129.6" class="st6" width="149.4" height="41.6"/>
		<text transform="matrix(1 0 0 1 161.9453 158.0386)" class="st4 st9 st10">Designs</text>
	</g>
</g>
</svg>
