<svg id="Layer_1" data-name="Layer 1" xmlns="http://www.w3.org/2000/svg" viewBox="0 0 396.3 138.88"><defs><style>.cls-1{fill:#fff;}.cls-2{isolation:isolate;}</style></defs><title>Tijdelijk Logo</title><rect class="cls-1" y="29.88" width="396.3" height="106.2"/><g class="cls-2"><path class="cls-1" d="M31.28,98.7Q28,98.7,28,95.21V35.42q0-3.49,3.26-3.49H68.11q3.49,0,3.49,3v5.49q0,3-3.49,3H41.62v16.2H64.29q3.49,0,3.49,3v5.5q0,3-3.49,3H41.62v24q0,3.49-3.26,3.49Z" transform="translate(4.11 -0.02)"/><path class="cls-1" d="M81.57,78.4V52.6a2.47,2.47,0,0,1,2.79-2.79h7.45a2.47,2.47,0,0,1,2.79,2.79V75q0,10.15,1.4,12.8t5.87,2.65a8.17,8.17,0,0,0,7.29-3.79q2.49-3.8,2.49-15.76V52.6a2.46,2.46,0,0,1,2.77-2.79h7.4a2.46,2.46,0,0,1,2.77,2.79V95.9a2.47,2.47,0,0,1-2.79,2.79h-7.36a2.47,2.47,0,0,1-2.79-2.79V93.2a11.51,11.51,0,0,1-5.52,5.05,20.87,20.87,0,0,1-7.93,1.37,16.46,16.46,0,0,1-11.87-4.56Q81.57,90.5,81.57,78.4Z" transform="translate(4.11 -0.02)"/><path class="cls-1" d="M140,98.7a2.46,2.46,0,0,1-2.77-2.79V52.6A2.47,2.47,0,0,1,140,49.81h7.36a2.47,2.47,0,0,1,2.79,2.79v2.7a11.45,11.45,0,0,1,5.48-5.05,21,21,0,0,1,8-1.37,16.8,16.8,0,0,1,12.09,4.56q4.78,4.56,4.78,16.67V95.9a2.47,2.47,0,0,1-2.79,2.79h-7.45a2.47,2.47,0,0,1-2.79-2.79V73.46q0-10.15-1.4-12.8t-6-2.65a8.26,8.26,0,0,0-7.4,3.79q-2.48,3.8-2.48,15.76V95.9a2.46,2.46,0,0,1-2.77,2.79Z" transform="translate(4.11 -0.02)"/><path class="cls-1" d="M192,98.7q-2.79,0-2.79-2.33V92.83a8.58,8.58,0,0,1,1.91-5L212,59.12v-.19q-1.86.19-3.72.19H193.13q-2.79,0-2.79-2.33V55.3q0-5.49,2.79-5.49h32.22q2.79,0,2.79,2v2.82q0,2-2.08,4.81L204.3,89.39v.19q2.55-.19,3.85-.19h18.21q2.89,0,2.89,2.33v4.66q0,2.33-2.79,2.33Z" transform="translate(4.11 -0.02)"/><path class="cls-1" d="M240.81,42.64A2.47,2.47,0,0,1,238,39.84v-6a2.47,2.47,0,0,1,2.79-2.79h7.45a2.47,2.47,0,0,1,2.79,2.79v6a2.47,2.47,0,0,1-2.79,2.79Zm0,56.06A2.47,2.47,0,0,1,238,95.9V52.6a2.47,2.47,0,0,1,2.79-2.79h7.45a2.47,2.47,0,0,1,2.79,2.79V95.9a2.47,2.47,0,0,1-2.79,2.79Z" transform="translate(4.11 -0.02)"/><path class="cls-1" d="M261.11,74.25a34.51,34.51,0,0,1,4.45-17.81q4.45-7.57,15.39-7.57a19,19,0,0,1,7.17,1.21q3,1.21,5.4,5.21V52.6q0-2.79,2.43-2.79h7.69q2.92,0,2.92,2.79V98.19q0,11.41-6.15,15.74t-17.79,4.33a75.59,75.59,0,0,1-9.13-.51,27.32,27.32,0,0,1-8.47-2.56q-2.23-1.07-.75-4.05l1.68-3.35q1-2,3.4-.93a26.66,26.66,0,0,0,4.73,1.58,30.4,30.4,0,0,0,7.15.7q6,0,9.13-2.21t3.17-9.66v-.79q0-1.86.19-3.72h-.19q-2.42,4-5.4,5.21a19.05,19.05,0,0,1-7.17,1.21q-10.94,0-15.39-7.57A33.58,33.58,0,0,1,261.11,74.25Zm13.78,0a28.54,28.54,0,0,0,1.93,11.38Q278.75,90,285,90q3.49,0,6-3.93a18.85,18.85,0,0,0,2.49-10.22V72.16A18.85,18.85,0,0,0,291,61.94Q288.53,58,285,58q-6.29,0-8.22,4.4T274.89,74.25Z" transform="translate(4.11 -0.02)"/><path class="cls-1" d="M316.61,74.25q0-11.78,5.89-18.58t16.65-6.8q12.48,0,18.53,6.43T363.73,76q0,2.79-2.61,2.79H330.39q.74,7.73,3.82,9.73a12.75,12.75,0,0,0,7.12,2,13.56,13.56,0,0,0,5.91-1,10.07,10.07,0,0,0,3.45-2.8A2.67,2.67,0,0,1,354.6,86l4.66,2.84q2.75,1.68.79,4A18.1,18.1,0,0,1,353.39,98q-3.82,1.67-12.06,1.68-13.36,0-19-6.8T316.61,74.25Zm13.78-4.8h20.3a13,13,0,0,0-2.52-8.25q-2.52-3.2-8-3.2a8.6,8.6,0,0,0-7,3.06A13.63,13.63,0,0,0,330.39,69.46Z" transform="translate(4.11 -0.02)"/></g><path class="cls-1" d="M27.29,31.3s-16.9-6.9-25.4,6.6c0,0-6,7.4,3.4,11.7,0,0,6.7,2.3,8.3-7.1C13.59,42.4,13.79,32.1,27.29,31.3Z" transform="translate(4.11 -0.02)"/><path class="cls-1" d="M28.49,28.6s-17.4-5.5-15.4-21.3c0,0,.1-9.5,10.1-6.8,0,0,6.6,2.5,1.9,10.8C25,11.3,18.69,19.4,28.49,28.6Z" transform="translate(4.11 -0.02)"/><path class="cls-1" d="M30.09,28.1s-5.9-17.2,8-25c0,0,7.8-5.6,11.5,4.1,0,0,1.9,6.8-7.6,7.9C42,15.1,31.69,14.7,30.09,28.1Z" transform="translate(4.11 -0.02)"/><rect class="cls-1" x="127.3" y="104.78" width="128.9" height="34.1"/><g class="cls-2"><path class="cls-1" d="M127.14,130.63V105.55h8.19a12.7,12.7,0,0,1,5.19,1,10.37,10.37,0,0,1,3.69,2.68,11.38,11.38,0,0,1,2.21,4,15.59,15.59,0,0,1,.74,4.86,15.25,15.25,0,0,1-.83,5.17,11.28,11.28,0,0,1-2.37,4,10.5,10.5,0,0,1-3.73,2.54,12.8,12.8,0,0,1-4.91.9Zm18.79-12.57a14.45,14.45,0,0,0-.69-4.56,10.07,10.07,0,0,0-2-3.6,9.38,9.38,0,0,0-3.34-2.37,11.38,11.38,0,0,0-4.52-.85h-7V129.5h7a11.37,11.37,0,0,0,4.59-.87,9.28,9.28,0,0,0,3.32-2.4,10.14,10.14,0,0,0,2-3.64A14.85,14.85,0,0,0,145.93,118.05Z" transform="translate(4.11 -0.02)"/><path class="cls-1" d="M159.38,131a8.16,8.16,0,0,1-3.5-.76,9,9,0,0,1-2.84-2.08,9.79,9.79,0,0,1-1.91-3.07,10.07,10.07,0,0,1-.69-3.73,9.78,9.78,0,0,1,.67-3.64,9.13,9.13,0,0,1,4.66-5,8.09,8.09,0,0,1,3.46-.74,8.41,8.41,0,0,1,3.53.74,8.86,8.86,0,0,1,2.83,2,9.59,9.59,0,0,1,1.89,3,9.85,9.85,0,0,1,.69,3.67v.28a.48.48,0,0,1,0,.25H151.69a9.66,9.66,0,0,0,.79,3.16,8.48,8.48,0,0,0,1.7,2.53,8,8,0,0,0,2.4,1.68,6.87,6.87,0,0,0,2.88.62,7.57,7.57,0,0,0,3.78-1,6.36,6.36,0,0,0,1.48-1.18,6.09,6.09,0,0,0,1-1.5l1.1.28a6.16,6.16,0,0,1-1.13,1.78,7.09,7.09,0,0,1-1.75,1.41,9.63,9.63,0,0,1-2.17.92A8.64,8.64,0,0,1,159.38,131ZM167,121a9.26,9.26,0,0,0-.74-3.18,8.31,8.31,0,0,0-1.68-2.51,7.5,7.5,0,0,0-2.38-1.64,7.19,7.19,0,0,0-2.9-.58,7,7,0,0,0-2.9.6A7.34,7.34,0,0,0,154,115.3a8.38,8.38,0,0,0-1.62,2.51,9.46,9.46,0,0,0-.72,3.14Z" transform="translate(4.11 -0.02)"/><path class="cls-1" d="M177.79,131a10.93,10.93,0,0,1-4-.71,8.81,8.81,0,0,1-3.25-2.19l.67-.81a11.13,11.13,0,0,0,3,2,8.65,8.65,0,0,0,3.46.67,7.21,7.21,0,0,0,4.17-1.09,3.52,3.52,0,0,0,1.59-3.07,2.75,2.75,0,0,0-.41-1.54,3.39,3.39,0,0,0-1.18-1.06,9.1,9.1,0,0,0-1.92-.78q-1.15-.34-2.63-.69t-2.63-.69a7.8,7.8,0,0,1-1.85-.79,2.87,2.87,0,0,1-1.09-1.17,4,4,0,0,1-.35-1.8,5,5,0,0,1,.53-2.37,4.81,4.81,0,0,1,1.43-1.64,6.28,6.28,0,0,1,2.08-1A9.7,9.7,0,0,1,178,112a9.09,9.09,0,0,1,3.83.74,5.44,5.44,0,0,1,2.35,1.87l-.81.6a4.85,4.85,0,0,0-2.28-1.62,9,9,0,0,0-3.2-.56,8.72,8.72,0,0,0-2,.23,4.84,4.84,0,0,0-1.68.74,3.64,3.64,0,0,0-1.57,3.13,3.13,3.13,0,0,0,.28,1.41,2.28,2.28,0,0,0,.9.94,6.46,6.46,0,0,0,1.55.64q.94.27,2.28.58,1.7.39,3,.78a10.46,10.46,0,0,1,2.23.92,3.85,3.85,0,0,1,1.4,1.31,3.73,3.73,0,0,1,.48,2,4.8,4.8,0,0,1-.49,2.21,5,5,0,0,1-1.4,1.68,6.35,6.35,0,0,1-2.19,1.08A10.27,10.27,0,0,1,177.79,131Z" transform="translate(4.11 -0.02)"/><path class="cls-1" d="M189,107.81v-3h1.2v3Zm0,22.82V112.26h1.2v18.37Z" transform="translate(4.11 -0.02)"/><path class="cls-1" d="M203.46,130.94a7.79,7.79,0,0,1-3.53-.81,9.1,9.1,0,0,1-2.79-2.14,9.91,9.91,0,0,1-1.82-3,9.53,9.53,0,0,1-.65-3.46,10.48,10.48,0,0,1,.62-3.58,9.72,9.72,0,0,1,1.75-3,8.62,8.62,0,0,1,2.7-2.12,7.59,7.59,0,0,1,3.48-.79,7.11,7.11,0,0,1,2.26.35,8.52,8.52,0,0,1,2,1,9.61,9.61,0,0,1,1.7,1.41,14.16,14.16,0,0,1,1.41,1.73v-4.17h1.13v18.93a7.08,7.08,0,0,1-.69,3.23,6.83,6.83,0,0,1-1.84,2.28,7.64,7.64,0,0,1-2.67,1.36,11.35,11.35,0,0,1-3.18.44,11.77,11.77,0,0,1-2.88-.32,8.31,8.31,0,0,1-2.21-.88,7.27,7.27,0,0,1-1.68-1.36,9.31,9.31,0,0,1-1.25-1.75l.88-.5a6.71,6.71,0,0,0,3,2.86,10,10,0,0,0,6.87.49,6.7,6.7,0,0,0,2.28-1.18,5.65,5.65,0,0,0,1.55-2,6.17,6.17,0,0,0,.56-2.72v-4.31a8,8,0,0,1-1.36,1.66,9.28,9.28,0,0,1-1.71,1.27,8.91,8.91,0,0,1-1.92.83A7.07,7.07,0,0,1,203.46,130.94Zm.18-1.09a6.41,6.41,0,0,0,2.42-.48,8.5,8.5,0,0,0,2.14-1.24,7.31,7.31,0,0,0,1.57-1.7,4.27,4.27,0,0,0,.72-1.89v-6.32a7.78,7.78,0,0,0-1.18-2,8.28,8.28,0,0,0-1.71-1.62,8.5,8.5,0,0,0-2-1.06,6.61,6.61,0,0,0-2.22-.39,6.52,6.52,0,0,0-3.14.74,7.45,7.45,0,0,0-2.33,1.94,8.66,8.66,0,0,0-1.45,2.7,9.59,9.59,0,0,0-.5,3,8.43,8.43,0,0,0,.6,3.16,8.71,8.71,0,0,0,1.64,2.65,8,8,0,0,0,2.45,1.84A6.84,6.84,0,0,0,203.64,129.85Z" transform="translate(4.11 -0.02)"/><path class="cls-1" d="M232,130.63h-1.2V120.38a10.89,10.89,0,0,0-1.08-5.53,3.71,3.71,0,0,0-3.41-1.75,7.06,7.06,0,0,0-2.47.46,8.52,8.52,0,0,0-2.28,1.27,9.43,9.43,0,0,0-1.84,1.91,7.3,7.3,0,0,0-1.15,2.4v11.48h-1.2V112.26h1.17v4.59a8.75,8.75,0,0,1,1.41-2,8.87,8.87,0,0,1,1.91-1.54,9.76,9.76,0,0,1,2.24-1,8.42,8.42,0,0,1,2.42-.35,4.56,4.56,0,0,1,4.19,2.07,11.89,11.89,0,0,1,1.29,6.2Z" transform="translate(4.11 -0.02)"/><path class="cls-1" d="M243.12,131a10.93,10.93,0,0,1-4-.71,8.81,8.81,0,0,1-3.25-2.19l.67-.81a11.13,11.13,0,0,0,3,2,8.65,8.65,0,0,0,3.46.67,7.21,7.21,0,0,0,4.17-1.09,3.52,3.52,0,0,0,1.59-3.07,2.74,2.74,0,0,0-.41-1.54,3.38,3.38,0,0,0-1.18-1.06,9.11,9.11,0,0,0-1.92-.78q-1.15-.34-2.63-.69t-2.63-.69a7.8,7.8,0,0,1-1.85-.79,2.86,2.86,0,0,1-1.09-1.17,4,4,0,0,1-.35-1.8,5,5,0,0,1,.53-2.37,4.81,4.81,0,0,1,1.43-1.64,6.29,6.29,0,0,1,2.08-1,9.69,9.69,0,0,1,2.53-.32,9.09,9.09,0,0,1,3.83.74,5.43,5.43,0,0,1,2.35,1.87l-.81.6a4.86,4.86,0,0,0-2.28-1.62,9,9,0,0,0-3.2-.56,8.72,8.72,0,0,0-2,.23,4.84,4.84,0,0,0-1.68.74,3.64,3.64,0,0,0-1.57,3.13,3.13,3.13,0,0,0,.28,1.41,2.28,2.28,0,0,0,.9.94,6.45,6.45,0,0,0,1.55.64q.94.27,2.28.58,1.69.39,3,.78a10.48,10.48,0,0,1,2.22.92,3.85,3.85,0,0,1,1.4,1.31,3.74,3.74,0,0,1,.48,2,4.79,4.79,0,0,1-.5,2.21,5,5,0,0,1-1.39,1.68,6.35,6.35,0,0,1-2.19,1.08A10.27,10.27,0,0,1,243.12,131Z" transform="translate(4.11 -0.02)"/></g></svg>